REM DIRINDEX 1\4,1\2\5,1\2\6,1\2\7,1\3\8,1\3\9,1\3\10,1\3\11
REM DIRNAME cjc108,folder01,folder02,folder03,folder04,folder05,folder06,folder07,folder08,folder09,folder10
TITLE ""
FILE "t_k_255-266.mp3" MP3
  TRACK 01 AUDIO
    TITLE "5:cjc108_0766"
    INDEX 01 00:00:00
  TRACK 02 AUDIO
    TITLE "0:"
    INDEX 01 00:00:66
  TRACK 03 AUDIO
    TITLE "6:cjc108_0767"
    INDEX 01 00:01:11
  TRACK 04 AUDIO
    TITLE "0:"
    INDEX 01 00:03:31
  TRACK 05 AUDIO
    TITLE "7:cjc108_0768"
    INDEX 01 00:03:59
  TRACK 06 AUDIO
    TITLE "0:"
    INDEX 01 00:07:66
  TRACK 07 AUDIO
    TITLE "5:cjc108_0769"
    INDEX 01 00:08:60
  TRACK 08 AUDIO
    TITLE "0:"
    INDEX 01 00:09:59
  TRACK 09 AUDIO
    TITLE "6:cjc108_0770"
    INDEX 01 00:10:16
  TRACK 10 AUDIO
    TITLE "0:"
    INDEX 01 00:11:25
  TRACK 11 AUDIO
    TITLE "7:cjc108_0771"
    INDEX 01 00:11:58
  TRACK 12 AUDIO
    TITLE "0:"
    INDEX 01 00:15:66
  TRACK 13 AUDIO
    TITLE "5:cjc108_0772"
    INDEX 01 00:16:51
  TRACK 14 AUDIO
    TITLE "0:"
    INDEX 01 00:17:57
  TRACK 15 AUDIO
    TITLE "6:cjc108_0773"
    INDEX 01 00:18:03
  TRACK 16 AUDIO
    TITLE "0:"
    INDEX 01 00:20:16
  TRACK 17 AUDIO
    TITLE "7:cjc108_0774"
    INDEX 01 00:20:32
  TRACK 18 AUDIO
    TITLE "0:"
    INDEX 01 00:28:25
  TRACK 19 AUDIO
    TITLE "5:cjc108_0775"
    INDEX 01 00:29:11
  TRACK 20 AUDIO
    TITLE "0:"
    INDEX 01 00:30:01
  TRACK 21 AUDIO
    TITLE "6:cjc108_0776"
    INDEX 01 00:30:16
  TRACK 22 AUDIO
    TITLE "0:"
    INDEX 01 00:32:07
  TRACK 23 AUDIO
    TITLE "7:cjc108_0777"
    INDEX 01 00:32:25
  TRACK 24 AUDIO
    TITLE "0:"
    INDEX 01 00:36:36
  TRACK 25 AUDIO
    TITLE "5:cjc108_0778"
    INDEX 01 00:37:18
  TRACK 26 AUDIO
    TITLE "0:"
    INDEX 01 00:38:16
  TRACK 27 AUDIO
    TITLE "6:cjc108_0779"
    INDEX 01 00:38:35
  TRACK 28 AUDIO
    TITLE "0:"
    INDEX 01 00:39:39
  TRACK 29 AUDIO
    TITLE "7:cjc108_0780"
    INDEX 01 00:39:64
  TRACK 30 AUDIO
    TITLE "0:"
    INDEX 01 00:43:31
  TRACK 31 AUDIO
    TITLE "5:cjc108_0781"
    INDEX 01 00:44:18
  TRACK 32 AUDIO
    TITLE "0:"
    INDEX 01 00:45:22
  TRACK 33 AUDIO
    TITLE "6:cjc108_0782"
    INDEX 01 00:45:41
  TRACK 34 AUDIO
    TITLE "0:"
    INDEX 01 00:46:51
  TRACK 35 AUDIO
    TITLE "7:cjc108_0783"
    INDEX 01 00:47:03
  TRACK 36 AUDIO
    TITLE "0:"
    INDEX 01 00:53:00
  TRACK 37 AUDIO
    TITLE "5:cjc108_0784"
    INDEX 01 00:53:68
  TRACK 38 AUDIO
    TITLE "0:"
    INDEX 01 00:55:14
  TRACK 39 AUDIO
    TITLE "6:cjc108_0785"
    INDEX 01 00:55:34
  TRACK 40 AUDIO
    TITLE "0:"
    INDEX 01 00:56:49
  TRACK 41 AUDIO
    TITLE "7:cjc108_0786"
    INDEX 01 00:56:74
  TRACK 42 AUDIO
    TITLE "0:"
    INDEX 01 01:01:66
  TRACK 43 AUDIO
    TITLE "5:cjc108_0787"
    INDEX 01 01:02:63
  TRACK 44 AUDIO
    TITLE "0:"
    INDEX 01 01:03:67
  TRACK 45 AUDIO
    TITLE "6:cjc108_0788"
    INDEX 01 01:04:23
  TRACK 46 AUDIO
    TITLE "0:"
    INDEX 01 01:06:18
  TRACK 47 AUDIO
    TITLE "7:cjc108_0789"
    INDEX 01 01:06:42
  TRACK 48 AUDIO
    TITLE "0:"
    INDEX 01 01:10:49
  TRACK 49 AUDIO
    TITLE "5:cjc108_0790"
    INDEX 01 01:11:37
  TRACK 50 AUDIO
    TITLE "0:"
    INDEX 01 01:12:52
  TRACK 51 AUDIO
    TITLE "6:cjc108_0791"
    INDEX 01 01:12:73
  TRACK 52 AUDIO
    TITLE "0:"
    INDEX 01 01:15:42
  TRACK 53 AUDIO
    TITLE "7:cjc108_0792"
    INDEX 01 01:15:62
  TRACK 54 AUDIO
    TITLE "0:"
    INDEX 01 01:22:58
  TRACK 55 AUDIO
    TITLE "5:cjc108_0793"
    INDEX 01 01:23:40
  TRACK 56 AUDIO
    TITLE "0:"
    INDEX 01 01:24:36
  TRACK 57 AUDIO
    TITLE "6:cjc108_0794"
    INDEX 01 01:24:55
  TRACK 58 AUDIO
    TITLE "0:"
    INDEX 01 01:26:52
  TRACK 59 AUDIO
    TITLE "7:cjc108_0795"
    INDEX 01 01:26:70
  TRACK 60 AUDIO
    TITLE "0:"
    INDEX 01 01:31:51
  TRACK 61 AUDIO
    TITLE "5:cjc108_0796"
    INDEX 01 01:32:45
  TRACK 62 AUDIO
    TITLE "0:"
    INDEX 01 01:33:52
  TRACK 63 AUDIO
    TITLE "6:cjc108_0797"
    INDEX 01 01:33:68
  TRACK 64 AUDIO
    TITLE "0:"
    INDEX 01 01:34:67
  TRACK 65 AUDIO
    TITLE "7:cjc108_0798"
    INDEX 01 01:35:08
  TRACK 66 AUDIO
    TITLE "0:"
    INDEX 01 01:39:31
  TRACK 67 AUDIO
    TITLE "5:cjc108_0799"
    INDEX 01 01:40:25
  TRACK 68 AUDIO
    TITLE "0:"
    INDEX 01 01:41:20
  TRACK 69 AUDIO
    TITLE "6:cjc108_0800"
    INDEX 01 01:41:44
  TRACK 70 AUDIO
    TITLE "0:"
    INDEX 01 01:42:67
  TRACK 71 AUDIO
    TITLE "7:cjc108_0801"
    INDEX 01 01:43:09
  TRACK 72 AUDIO
    TITLE "0:"
    INDEX 01 01:48:46
